# xmcd
#
# Track frame offsets: 
#        150
#        23322
#        50097
#        68555
#        86822
#        114737
#        145067
#        166325
#        181132
#        199280
#        244660
#
# Disc length: 3317 seconds
#
# Revision: 4
# Processed by: cddbd v1.5.1PL0 Copyright (c) Steve Scherf et al.
# Submitted via: ExactAudioCopy v0.95a4
#
DISCID=900cf30b
DTITLE=Chris Wilson - The Long Weekend [CD1]
DYEAR=1998
DGENRE=Blues
TTITLE0=Medicine Man
TTITLE1=Skin A Cat
TTITLE2=Can't Stand The Way
TTITLE3=People Like Me
TTITLE4=Too Many Hearts
TTITLE5=Hold Me Close
TTITLE6=Slow Train
TTITLE7=Cahiba
TTITLE8=Little Richard
TTITLE9=Death May Be Your Ticket
TTITLE10=The Fourth Stooge
EXTD=
EXTT0=
EXTT1=
EXTT2=
EXTT3=
EXTT4=
EXTT5=
EXTT6=
EXTT7=
EXTT8=
EXTT9=
EXTT10=
PLAYORDER=
